<!DOCTYPE svg PUBLIC "-//W3C//DTD SVG 20010904//EN"
 "http://www.w3.org/TR/2001/REC-SVG-20010904/DTD/svg10.dtd">
<svg version="1.0" xmlns="http://www.w3.org/2000/svg"
 width="1079.000000pt" height="1128.000000pt" viewBox="0 0 1079.000000 1128.000000"
 preserveAspectRatio="xMidYMid meet">
<g transform="translate(0.000000,1128.000000) scale(0.100000,-0.100000)"
  fill="#000000" stroke="none">
  <path d="M5225 10523 c-681 -33 -1315 -194 -1920 -487 -458 -222 -816 -467 -1213 -828 -695 -635 -1221 -1532 -1440 -2458 -93 -392 -132 -728 -132 -1140 0 -613 100 -1196 295 -1717 374 -1002 1044 -1845 1930 -2428 754 -496 1610 -770 2511 -804 1137 -43 2232 293 3137 962 453 336 846 750 1162 1222 479 718 733 1444 821 2340 20 212 15 710 -11 935 -102 899 -437 1745 -966 2440 -157 206 -250 312 -459 520 -216 216 -321 309 -535 470 -901 678 -2049 1029 -3180 973z m680 -538 c409 -44 797 -139 1186 -290 135 -53 495 -231 624 -310 741 -450 1325 -1085 1699 -1845 325 -659 471 -1323 453 -2050 -13 -531 -109 -1011 -298 -1495 -214 -549 -539 -1050 -959 -1479 -452 -462 -973 -808 -1565 -1039 -855 -333 -1816 -387 -2715 -151 -1046 274 -1965 933 -2564 1839 -298 449 -502 928 -620 1452 -113 504 -137 1073 -66 1586 203 1459 1105 2703 2435 3356 532 262 1073 402 1715 445 113 8 540 -5 675 -19z"/>
  <path d="M3371 8509 c-452 -40 -885 -243 -1234 -578 -132 -127 -224 -237 -368 -439 l-119 -167 327 -3 c235 -2 341 1 372 9 37 11 67 35 175 144 144 145 247 222 400 300 203 102 381 145 611 146 392 1 743 -156 1052 -472 283 -289 485 -661 593 -1089 61 -241 82 -396 110 -819 23 -340 39 -478 76 -661 51 -250 126 -464 253 -725 158 -324 310 -543 531 -765 202 -203 389 -338 627 -452 666 -319 1385 -254 2028 183 131 89 181 133 205 180 19 35 20 60 20 323 l0 284 -75 4 c-117 5 -131 -1 -210 -85 -238 -254 -527 -418 -859 -489 -144 -30 -370 -30 -516 1 -260 55 -518 188 -735 379 -301 265 -568 724 -686 1181 -60 233 -80 414 -99 901 -14 367 -54 599 -152 894 -253 762 -715 1332 -1313 1622 -234 113 -447 172 -698 193 -142 12 -179 12 -316 0z"/>
  <path d="M7500 8514 c-442 -42 -806 -190 -1157 -472 -92 -74 -349 -331 -393 -392 l-18 -26 169 -157 c92 -87 182 -169 198 -183 l29 -25 159 146 c253 233 418 351 603 430 197 84 343 110 581 102 376 -13 671 -127 889 -346 127 -128 224 -291 272 -458 34 -117 31 -293 -6 -428 -99 -365 -347 -613 -745 -745 -218 -73 -225 -73 -902 -77 l-606 -4 -42 -95 c-23 -52 -41 -99 -39 -104 5 -15 215 -149 300 -191 240 -121 498 -184 798 -196 430 -16 807 86 1145 312 429 287 662 694 682 1190 19 468 -117 859 -400 1152 -155 161 -301 264 -527 372 -318 152 -683 223 -990 195z"/>
  <path d="M3482 6339 c-285 -22 -587 -117 -835 -262 -268 -158 -530 -407 -697 -662 -198 -304 -306 -703 -286 -1064 25 -450 168 -742 537 -1096 231 -222 475 -364 743 -435 253 -67 305 -74 526 -74 475 0 736 61 1028 241 225 138 388 260 520 388 l134 130 -212 168 c-117 93 -218 171 -224 173 -6 2 -87 -55 -181 -127 -277 -214 -382 -278 -557 -339 -139 -47 -221 -61 -403 -67 -297 -9 -498 43 -726 188 -340 216 -524 443 -596 737 -23 94 -23 300 1 412 36 167 116 358 213 503 169 255 415 435 752 551 200 69 190 69 1065 75 l788 6 -218 146 c-121 81 -255 167 -299 191 -316 178 -665 249 -1073 217z"/>
</g>
</svg>

