<?xml version="1.0" standalone="no"?>
<!DOCTYPE svg PUBLIC "-//W3C//DTD SVG 20010904//EN"
 "http://www.w3.org/TR/2001/REC-SVG-20010904/DTD/svg10.dtd">
<svg version="1.0" xmlns="http://www.w3.org/2000/svg"
 width="1080.000000pt" height="352.000000pt" viewBox="0 0 1080.000000 352.000000"
 preserveAspectRatio="xMidYMid meet">

<g transform="translate(0.000000,352.000000) scale(0.100000,-0.100000)"
fill="#000000" stroke="none">
<path d="M1545 3214 c-457 -68 -832 -307 -1064 -678 -278 -445 -290 -1023 -29 -1478 205 -361 541 -609 953 -704 108 -25 139 -28 305 -28 201 0 312 17 470 71 399 137 725 444 880 830 51 127 76 226 95 371 19 142 19 197 0 349 -60 484 -358 905 -795 1123 -200 100 -368 140 -610 145 -96 2 -188 1 -205 -1z m316 -154 c450 -52 836 -330 1029 -744 95 -202 125 -356 117 -591 -4 -124 -11 -182 -30 -256 -60 -233 -160 -415 -325 -590 -397 -422 -1034 -524 -1551 -248 -338 181 -576 498 -658 879 -14 65 -18 128 -18 270 1 168 3 195 28 294 61 244 173 443 347 616 281 279 670 415 1061 370z"/>
<path d="M1016 2615 c-106 -27 -193 -81 -291 -180 -49 -50 -98 -105 -108 -123 l-18 -32 103 0 103 0 56 53 c176 165 408 164 582 -2 104 -99 181 -251 206 -406 6 -38 15 -130 21 -203 21 -264 108 -463 269 -615 126 -119 305 -186 460 -172 87 7 206 49 284 98 79 51 88 69 85 163 -3 73 -5 79 -25 82 -16 2 -43 -14 -87 -51 -80 -68 -155 -105 -239 -120 -210 -36 -428 119 -525 371 -38 98 -49 161 -61 347 -11 172 -38 279 -100 403 -92 182 -221 305 -390 369 -84 32 -236 40 -325 18z"/>
<path d="M2236 2618 c-110 -21 -274 -120 -345 -209 l-35 -43 58 -52 59 -53 70 64 c38 35 99 78 136 97 63 31 71 33 176 33 100 0 116 -3 171 -28 246 -114 249 -410 5 -530 l-66 -32 -190 -3 c-104 -1 -199 -4 -211 -7 -17 -4 -51 -52 -42 -60 2 -2 26 -17 53 -34 80 -51 174 -75 290 -75 161 0 274 43 381 145 93 90 133 186 134 319 0 134 -48 248 -140 333 -128 118 -322 170 -504 135z"/>
<path d="M1045 1977 c-346 -89 -541 -462 -394 -756 39 -78 159 -193 243 -232 87 -41 202 -61 296 -54 118 10 185 33 279 95 79 53 161 125 150 133 -2 2 -30 25 -63 50 l-58 47 -27 -20 c-144 -111 -226 -144 -342 -138 -58 3 -91 12 -143 36 -88 41 -176 128 -199 196 -53 157 35 356 195 437 95 48 114 51 367 58 l245 6 -80 52 c-123 80 -169 95 -304 99 -71 2 -134 -1 -165 -9z"/>
<path d="M3985 2484 c-87 -21 -116 -30 -160 -52 -78 -38 -128 -85 -165 -153 -28 -52 -34 -77 -38 -141 -12 -211 91 -310 405 -384 238 -56 293 -87 293 -164 0 -149 -307 -176 -555 -49 -43 22 -79 38 -81 36 -4 -4 -73 -154 -85 -184 -7 -20 -3 -26 44 -53 58 -33 170 -72 262 -91 90 -19 296 -16 375 5 205 53 320 180 320 354 0 86 -13 131 -53 184 -64 84 -170 132 -410 189 -191 45 -237 74 -237 147 0 52 24 88 77 113 40 19 64 23 143 23 108 1 175 -14 273 -57 37 -16 69 -28 71 -26 6 6 86 197 86 204 0 10 -120 62 -185 80 -59 16 -334 30 -380 19z"/>
<path d="M5900 1859 l0 -611 338 4 c381 5 417 10 562 80 153 73 264 210 306 378 23 92 15 270 -17 364 -48 144 -183 283 -329 342 -118 47 -184 54 -536 54 l-324 0 0 -611z m725 348 c116 -54 185 -147 206 -277 21 -127 -14 -251 -98 -336 -84 -87 -201 -118 -428 -112 l-120 3 -3 378 -2 379 192 -4 c187 -3 195 -4 253 -31z"/>
<path d="M8428 2288 l-3 -113 -72 -3 -73 -3 0 -104 0 -104 73 -3 72 -3 5 -250 c6 -276 8 -290 73 -362 67 -74 182 -110 315 -99 74 6 172 40 172 59 0 6 -14 49 -32 95 -28 74 -34 83 -52 77 -47 -15 -117 -17 -146 -5 -55 23 -60 46 -60 280 l0 210 115 0 115 0 0 105 0 105 -115 0 -115 0 0 115 0 115 -135 0 -134 0 -3 -112z"/>
<path d="M5049 2181 c-182 -58 -303 -197 -332 -382 -14 -91 2 -204 39 -285 37 -79 130 -171 214 -212 204 -100 486 -74 628 59 l32 30 -71 79 -72 79 -31 -23 c-70 -53 -96 -60 -201 -61 -88 0 -107 3 -150 25 -52 27 -115 104 -115 141 0 18 14 19 349 19 l349 0 7 31 c16 70 -21 231 -70 309 -55 86 -150 159 -254 190 -83 26 -242 27 -322 1z m289 -218 c34 -21 54 -43 75 -85 16 -31 26 -61 23 -67 -10 -15 -442 -15 -451 0 -11 17 44 117 77 140 81 58 194 63 276 12z"/>
<path d="M7515 2186 c-74 -17 -159 -51 -197 -77 l-28 -20 45 -90 c25 -49 48 -89 51 -89 4 0 34 14 68 30 196 97 416 40 416 -107 l0 -33 -157 0 c-227 0 -321 -26 -396 -109 -41 -46 -57 -93 -57 -174 0 -72 17 -113 69 -170 84 -91 247 -130 389 -93 64 16 144 64 158 95 5 10 10 -3 14 -39 l5 -55 125 0 125 0 3 265 c2 146 -2 301 -8 345 -20 155 -94 254 -227 306 -74 28 -303 37 -398 15z m355 -592 c0 -71 -26 -115 -83 -143 -86 -41 -177 -36 -234 13 -23 20 -28 32 -28 70 0 88 54 113 243 115 l102 1 0 -56z"/>
<path d="M9345 2184 c-77 -16 -215 -77 -215 -94 0 -9 76 -168 85 -178 2 -2 33 10 69 27 138 66 304 65 372 -3 33 -33 62 -112 47 -126 -4 -5 -89 -10 -188 -13 -202 -4 -256 -16 -327 -70 -68 -52 -93 -106 -93 -202 0 -63 5 -89 22 -121 59 -110 203 -175 361 -161 92 8 156 33 202 76 l39 37 3 -50 3 -51 125 0 125 0 3 295 c2 241 0 308 -13 367 -27 123 -100 206 -222 254 -76 29 -291 37 -398 13z m360 -596 c-1 -68 -21 -101 -86 -137 -55 -32 -156 -35 -207 -8 -45 25 -67 76 -52 123 22 65 75 83 240 81 l105 -2 0 -57z"/>
<path d="M4950 1065 l-34 -35 30 0 c19 0 50 14 80 35 l49 35 -46 0 c-38 0 -50 -5 -79 -35z"/>
<path d="M8882 898 c-22 -112 -38 -206 -35 -210 2 -5 17 -8 33 -8 22 0 31 6 35 23 13 55 75 372 75 384 0 8 -12 13 -34 13 l-33 0 -41 -202z"/>
<path d="M3825 1084 c-90 -22 -142 -60 -176 -127 -52 -100 -26 -209 60 -254 69 -36 183 -29 240 15 21 17 22 21 10 41 -8 12 -21 20 -29 17 -8 -3 -35 -12 -60 -21 -54 -20 -99 -13 -140 21 -26 23 -30 32 -30 78 0 66 26 115 76 143 51 29 122 31 157 3 31 -25 39 -25 62 0 15 16 16 22 5 35 -29 35 -123 61 -175 49z"/>
<path d="M5522 1018 c-6 -26 -14 -34 -35 -36 -21 -3 -27 -9 -27 -28 0 -17 5 -24 20 -24 24 0 24 -8 4 -99 -13 -58 -14 -77 -4 -100 14 -36 58 -55 106 -48 45 8 48 10 40 40 -5 20 -10 23 -32 19 -46 -9 -54 16 -35 106 l16 77 43 3 c37 3 42 6 42 28 0 21 -4 24 -36 24 -36 0 -37 0 -31 35 6 34 5 35 -28 35 -30 0 -35 -4 -43 -32z"/>
<path d="M6145 1038 c-2 -7 -5 -22 -7 -33 -2 -13 -12 -21 -30 -23 -18 -2 -27 -10 -31 -28 -3 -20 0 -24 19 -24 28 0 28 6 8 -98 -13 -64 -14 -88 -6 -108 28 -59 162 -58 146 2 -4 16 -12 19 -33 16 -46 -7 -53 14 -35 106 l17 82 43 0 c40 0 44 2 44 25 0 22 -4 25 -36 25 -35 0 -36 1 -32 35 4 34 3 35 -29 35 -19 0 -35 -6 -38 -12z"/>
<path d="M7425 1038 c-2 -7 -5 -22 -7 -33 -2 -13 -12 -21 -31 -23 -21 -3 -27 -9 -27 -28 0 -17 5 -24 20 -24 24 0 24 0 5 -92 -9 -40 -13 -85 -9 -100 8 -38 55 -62 106 -55 48 6 52 10 44 40 -4 19 -11 23 -34 19 -47 -6 -53 13 -34 103 l17 80 43 3 c37 3 42 6 42 28 0 21 -4 24 -36 24 -36 0 -37 0 -31 35 6 34 5 35 -29 35 -19 0 -36 -6 -39 -12z"/>
<path d="M4126 980 c-38 -12 -85 -57 -102 -97 -59 -139 76 -251 216 -180 108 54 129 194 38 260 -30 22 -108 31 -152 17z m121 -76 c16 -21 17 -88 3 -115 -13 -24 -61 -49 -95 -49 -15 0 -37 11 -52 26 -36 36 -28 97 18 138 27 24 38 27 73 23 22 -3 46 -14 53 -23z"/> 
<path d="M4403 840 c-17 -82 -28 -152 -25 -155 3 -3 18 -5 33 -5 31 0 30 -2 54 112 20 90 43 125 89 134 75 14 90 -24 61 -156 -20 -90 -20 -90 20 -90 19 0 35 2 35 4 0 2 9 48 20 102 11 54 18 111 15 125 -14 64 -97 95 -169 65 -47 -20 -47 -20 -40 -1 5 12 -2 15 -28 15 l-35 0 -30 -150z"/>
<path d="M4864 971 c-59 -27 -87 -72 -92 -146 -3 -51 0 -64 19 -89 44 -56 129 -71 207 -36 42 19 43 20 27 44 -15 23 -17 23 -46 9 -55 -27 -139 -4 -139 38 0 17 11 19 118 21 l117 3 -1 46 c0 57 -24 96 -69 115 -46 19 -92 17 -141 -5z m128 -58 c10 -9 18 -24 18 -35 0 -16 -9 -18 -85 -18 -82 0 -85 1 -75 19 26 49 105 68 142 34z"/>
<path d="M5238 981 c-76 -25 -118 -85 -118 -169 0 -40 6 -57 26 -81 51 -60 165 -66 226 -12 l32 28 -27 18 c-25 16 -27 16 -53 -4 -55 -43 -134 -11 -134 54 0 93 87 147 153 95 22 -17 29 -19 52 -8 79 36 -64 108 -157 79z"/>
<path d="M5770 968 c-53 -28 -90 -91 -90 -153 0 -52 17 -84 59 -112 39 -26 87 -29 136 -9 31 13 35 13 35 0 0 -9 10 -14 30 -14 22 0 31 5 35 23 10 43 55 270 55 278 0 5 -15 9 -34 9 -26 0 -35 -5 -39 -22 -6 -21 -7 -21 -26 -3 -33 29 -108 31 -161 3z m147 -64 c7 -10 13 -33 13 -51 0 -94 -96 -148 -157 -87 -36 36 -28 97 18 138 27 24 38 27 73 23 22 -3 46 -14 53 -23z"/>
<path d="M6390 968 c-64 -33 -92 -85 -87 -162 3 -51 8 -63 35 -87 17 -15 47 -31 67 -35 47 -9 119 3 145 24 19 16 19 19 5 39 -14 20 -17 21 -46 6 -56 -28 -139 -2 -139 44 0 9 30 13 118 15 l117 3 3 40 c7 108 -109 168 -218 113z m132 -55 c10 -9 18 -24 18 -35 0 -16 -9 -18 -80 -18 -89 0 -102 12 -54 49 32 25 90 27 116 4z"/>
<path d="M6914 979 c-40 -11 -90 -67 -103 -116 -14 -51 -14 -61 8 -109 30 -65 118 -94 183 -60 23 12 27 12 32 -1 4 -9 16 -13 33 -11 27 3 29 6 55 133 36 171 36 175 -3 175 -22 0 -32 -6 -36 -19 -4 -18 -6 -18 -41 0 -39 20 -78 23 -128 8z m123 -75 c36 -36 28 -97 -18 -138 -27 -24 -38 -27 -73 -23 -48 7 -66 28 -66 80 0 48 13 72 48 91 41 23 79 19 109 -10z"/>
<path d="M7645 978 c-12 -33 -35 -164 -35 -198 0 -56 33 -91 91 -97 31 -4 56 0 76 11 27 13 32 14 37 1 6 -17 51 -21 61 -6 9 16 63 290 57 296 -3 3 -18 5 -33 5 -31 0 -29 5 -53 -114 -16 -80 -41 -117 -84 -130 -24 -7 -37 -5 -57 8 -29 19 -31 41 -10 136 21 95 20 100 -15 100 -17 0 -33 -6 -35 -12z"/>
<path d="M8235 971 c-54 -25 -81 -57 -96 -113 -26 -96 22 -165 124 -174 41 -4 61 -1 97 18 51 26 60 47 29 66 -18 11 -24 11 -39 -3 -10 -9 -36 -19 -58 -22 -35 -5 -45 -1 -67 22 -23 22 -26 32 -22 62 15 90 97 132 161 82 25 -20 28 -20 52 -4 25 16 25 17 7 37 -42 48 -121 60 -188 29z"/> 
<path d="M8550 968 c-24 -13 -53 -35 -64 -50 -27 -37 -34 -134 -13 -175 29 -55 120 -80 179 -49 23 12 27 12 32 0 6 -16 52 -19 61 -5 9 16 63 290 57 296
-3 3 -19 5 -35 5 -20 0 -30 -6 -34 -19 -5 -19 -5 -19 -36 0 -42 25 -93 24
-147 -3z m137 -64 c22 -22 25 -32 20 -67 -10 -73 -81 -117 -140 -86 -30 16
-37 28 -36 69 0 93 96 144 156 84z"/>
<path d="M9065 978 c-9 -23 -55 -260 -55 -280 0 -16 6 -19 32 -16 l33 3 21 97
c11 54 29 107 38 117 36 40 107 35 120 -7 4 -10 -2 -60 -13 -110 -10 -50 -16
-94 -13 -97 3 -3 18 -5 33 -5 31 0 29 -3 54 114 24 113 74 159 136 126 23 -13
25 -64 4 -160 -7 -35 -11 -68 -9 -72 5 -8 64 -12 64 -4 0 2 9 49 21 105 17 83
18 108 9 136 -21 64 -97 83 -177 44 -41 -20 -45 -20 -63 -4 -27 24 -89 30
-133 12 -32 -14 -37 -14 -37 -1 0 18 -59 20 -65 2z"/>
<path d="M9704 971 c-59 -27 -87 -72 -92 -147 -4 -59 -3 -64 30 -99 27 -30 43
-38 80 -42 30 -4 56 0 76 10 26 12 32 13 36 1 3 -8 19 -14 35 -14 28 0 30 3
40 53 5 28 19 96 29 149 11 54 17 100 14 103 -3 3 -18 5 -33 5 -19 0 -30 -6
-34 -20 -6 -19 -6 -19 -38 0 -40 25 -90 25 -143 1z m130 -62 c40 -32 37 -90
-8 -135 -40 -40 -80 -44 -120 -13 -20 16 -26 29 -26 57 1 91 88 143 154 91z"/>
</g>
</svg>
